<svg width="1280" height="320" viewBox="0 0 1280 320" xmlns="http://www.w3.org/2000/svg">
  <defs>
    <linearGradient id="bg" x1="0%" y1="0%" x2="100%" y2="100%">
      <stop offset="0%" style="stop-color:#0a0a0a;stop-opacity:1" />
      <stop offset="100%" style="stop-color:#111214;stop-opacity:1" />
    </linearGradient>
    <linearGradient id="redLine" x1="0%" y1="0%" x2="100%" y2="0%">
      <stop offset="0%" style="stop-color:#ef4444;stop-opacity:0" />
      <stop offset="25%" style="stop-color:#ef4444;stop-opacity:1" />
      <stop offset="75%" style="stop-color:#ef4444;stop-opacity:1" />
      <stop offset="100%" style="stop-color:#ef4444;stop-opacity:0" />
    </linearGradient>
    <linearGradient id="dimLine" x1="0%" y1="0%" x2="100%" y2="0%">
      <stop offset="0%" style="stop-color:#374151;stop-opacity:0" />
      <stop offset="50%" style="stop-color:#374151;stop-opacity:1" />
      <stop offset="100%" style="stop-color:#374151;stop-opacity:0" />
    </linearGradient>
    <filter id="glow">
      <feGaussianBlur stdDeviation="2.5" result="blur"/>
      <feMerge><feMergeNode in="blur"/><feMergeNode in="SourceGraphic"/></feMerge>
    </filter>
  </defs>
  <rect width="1280" height="320" fill="url(#bg)"/>
  <g opacity="0.03" stroke="#ffffff" stroke-width="0.5">
    <line x1="0" y1="80" x2="1280" y2="80"/><line x1="0" y1="160" x2="1280" y2="160"/>
    <line x1="0" y1="240" x2="1280" y2="240"/><line x1="256" y1="0" x2="256" y2="320"/>
    <line x1="512" y1="0" x2="512" y2="320"/><line x1="768" y1="0" x2="768" y2="320"/>
    <line x1="1024" y1="0" x2="1024" y2="320"/>
  </g>
  <g opacity="0.15">
    <rect x="48" y="180" width="22" height="100" fill="#ef4444" rx="1"/>
    <rect x="76" y="155" width="22" height="125" fill="#ef4444" rx="1"/>
    <rect x="104" y="200" width="22" height="80" fill="#ef4444" rx="1"/>
    <rect x="132" y="165" width="22" height="115" fill="#ef4444" rx="1"/>
    <rect x="160" y="210" width="22" height="70" fill="#ef4444" rx="1"/>
    <rect x="188" y="175" width="22" height="105" fill="#ef4444" rx="1"/>
  </g>
  <g opacity="0.15">
    <rect x="1042" y="170" width="22" height="110" fill="#ef4444" rx="1"/>
    <rect x="1070" y="195" width="22" height="85" fill="#ef4444" rx="1"/>
    <rect x="1098" y="155" width="22" height="125" fill="#ef4444" rx="1"/>
    <rect x="1126" y="185" width="22" height="95" fill="#ef4444" rx="1"/>
    <rect x="1154" y="205" width="22" height="75" fill="#ef4444" rx="1"/>
    <rect x="1182" y="160" width="22" height="120" fill="#ef4444" rx="1"/>
  </g>
  <line x1="40" y1="280" x2="1240" y2="280" stroke="url(#dimLine)" stroke-width="1"/>
  <line x1="340" y1="112" x2="940" y2="112" stroke="url(#redLine)" stroke-width="1.5" filter="url(#glow)"/>
  <rect x="48" y="36" width="90" height="22" rx="11" fill="#ef4444" opacity="0.1"/>
  <text x="93" y="51" font-family="monospace" font-size="10" fill="#ef4444" opacity="0.8" text-anchor="middle" letter-spacing="1">CX ANALYTICS</text>
  <rect x="150" y="36" width="100" height="22" rx="11" fill="#ef4444" opacity="0.1"/>
  <text x="200" y="51" font-family="monospace" font-size="10" fill="#ef4444" opacity="0.8" text-anchor="middle" letter-spacing="1">REVENUE RISK</text>
  <rect x="262" y="36" width="110" height="22" rx="11" fill="#ef4444" opacity="0.1"/>
  <text x="317" y="51" font-family="monospace" font-size="10" fill="#ef4444" opacity="0.8" text-anchor="middle" letter-spacing="1">EXEC STRATEGY</text>
  <text x="640" y="158" font-family="Georgia, serif" font-size="68" font-weight="700" fill="#ffffff" text-anchor="middle" letter-spacing="-1">THE COST OF FRICTION</text>
  <text x="640" y="193" font-family="monospace" font-size="12" fill="#6b7280" text-anchor="middle" letter-spacing="3">QUANTIFYING REVENUE AT RISK FROM CUSTOMER EXPERIENCE BREAKDOWN</text>
  <text x="56" y="175" font-family="monospace" font-size="9" fill="#ef4444" opacity="0.35">$4.2M</text>
  <text x="132" y="162" font-family="monospace" font-size="9" fill="#ef4444" opacity="0.35">$7.8M</text>
  <text x="1098" y="152" font-family="monospace" font-size="9" fill="#ef4444" opacity="0.35">$11.4M</text>
  <text x="1042" y="167" font-family="monospace" font-size="9" fill="#ef4444" opacity="0.35">$3.1M</text>
  <text x="640" y="304" font-family="monospace" font-size="10" fill="#1f2937" text-anchor="middle" letter-spacing="2">CORPORATE STRATEGY · PORTFOLIO PROJECT · LYLESMOM</text>
</svg>